<svg width="20" height="24" viewBox="0 0 20 24" fill="none" xmlns="http://www.w3.org/2000/svg">
<path fill-rule="evenodd" clip-rule="evenodd" d="M9.57073 5.50014C9.4623 3.86556 10.2473 0.47712 14.2549 0C14.385 1.7892 13.6304 5.39411 9.57073 5.50014ZM9.76655 6.95785C8.48707 6.22891 5.38163 5.12889 3.19567 6.56025C0.463225 8.34945 -0.252416 10.8676 0.0728752 14.3797C0.398166 17.8918 2.54509 21.2052 3.00049 21.8016C3.4559 22.398 4.82212 24.0547 6.12329 23.9884C6.73496 23.9572 7.38977 23.7211 8.0404 23.4864C8.7738 23.2219 9.50189 22.9593 10.1569 22.9944C10.7261 23.0249 11.3642 23.2662 11.9951 23.5047C12.7344 23.7842 13.4637 24.0599 14.0604 23.9884C16.0121 23.7545 18.1591 21.0727 19.2 17.6268C17.8338 16.8978 16.0121 15.3737 16.0121 12.8556C16.0121 10.0724 17.7687 8.68077 18.5494 8.15064C18.094 7.35544 16.6757 5.76504 14.6459 5.76504C12.778 5.76504 11.5447 6.26787 10.6347 6.63892C10.3086 6.77188 10.024 6.88792 9.76655 6.95785Z" fill="#262729"/>
</svg>
