<svg width="12" height="24" viewBox="0 0 12 24" fill="none" xmlns="http://www.w3.org/2000/svg">
<g clip-path="url(#clip0)">
<path d="M7.20929 4.63905C7.35589 4.29286 7.63184 4.09379 7.96816 3.97262C8.40796 3.81684 8.86501 3.80818 9.33068 3.8428C9.83947 3.87742 10.3396 3.97262 10.8312 4.10245C10.9088 4.11976 10.9347 4.10245 10.9519 4.03321C10.9692 3.92935 10.9778 3.83415 10.995 3.73029C11.1416 2.87345 11.2882 2.02528 11.4348 1.16844C11.4779 0.934759 11.4952 0.692423 11.5728 0.458741C11.3658 0.380847 11.1502 0.337572 10.9347 0.294298C10.2534 0.164474 9.57214 0.0952353 8.87363 0.0519608C8.09751 0.00868637 7.31277 -0.0345881 6.53665 0.0259961C5.28624 0.1212 4.25141 0.623183 3.44942 1.58388C3.08723 2.00797 2.83715 2.49264 2.70779 3.02059C2.55257 3.61777 2.49221 4.24093 2.48358 4.86408C2.48358 5.27951 2.48358 5.69495 2.48358 6.11038C2.48358 6.64699 2.48358 7.18359 2.48358 7.72019C2.48358 7.77212 2.47496 7.82405 2.47496 7.87598C2.48358 7.88463 2.48358 7.88463 2.47496 7.89329C2.44046 7.97118 2.37148 7.93656 2.32836 7.93656C1.60398 7.93656 0.879602 7.94522 0.163847 7.93656C0.0344942 7.93656 0 7.96253 0 8.09235C0 9.19152 0 10.2907 0 11.3812C0 11.5024 0.0344942 11.5283 0.1466 11.5283C0.853731 11.5197 1.56086 11.5283 2.26799 11.5283C2.47496 11.5283 2.47496 11.5283 2.47496 11.7361C2.47496 13.9257 2.46634 16.1154 2.46634 18.3051C2.46634 19.8111 2.46634 21.317 2.46634 22.8143C2.46634 23.2124 2.44909 23.6106 2.47496 24C4.01857 24 5.56219 24 7.1058 23.9914C7.1058 23.9394 7.1058 23.8962 7.1058 23.8442C7.1058 20.0274 7.1058 16.2106 7.1058 12.3938C7.1058 12.3332 7.11443 12.264 7.11443 12.2034C7.11443 12.0044 7.11443 11.8053 7.11443 11.6062V11.5543C7.15755 11.4851 7.21791 11.5197 7.26965 11.5197C8.39071 11.5197 9.50315 11.511 10.6242 11.5197C10.7363 11.5197 10.7708 11.4937 10.7794 11.3812C10.857 10.282 10.9433 9.18287 11.0295 8.0837C11.0381 7.95387 11.0036 7.91925 10.8743 7.91925C9.667 7.92791 8.45108 7.91925 7.24378 7.91925C7.14892 7.91925 7.09718 7.9106 7.09718 7.78943C7.1058 6.89798 7.09718 6.00652 7.09718 5.11507C7.11443 4.95928 7.14892 4.79484 7.20929 4.63905Z" fill="white"/>
</g>
<defs>
<clipPath id="clip0">
<rect width="11.5556" height="24" fill="white"/>
</clipPath>
</defs>
</svg>
